<?xml version="1.0" encoding="UTF-8" standalone="no"?>
<!-- Created with Inkscape (http://www.inkscape.org/) -->

<svg
   width="42mm"
   height="42mm"
   viewBox="0 0 42 42"
   version="1.1"
   id="svg1"
   inkscape:version="1.4 (86a8ad7, 2024-10-11)"
   sodipodi:docname="SuperSpaceSteamPageIcon.svg"
   inkscape:export-filename="OfficePlusSteamPageIcon.png"
   inkscape:export-xdpi="500"
   inkscape:export-ydpi="500"
   xml:space="preserve"
   xmlns:inkscape="http://www.inkscape.org/namespaces/inkscape"
   xmlns:sodipodi="http://sodipodi.sourceforge.net/DTD/sodipodi-0.dtd"
   xmlns:xlink="http://www.w3.org/1999/xlink"
   xmlns="http://www.w3.org/2000/svg"
   xmlns:svg="http://www.w3.org/2000/svg"><sodipodi:namedview
     id="namedview1"
     pagecolor="#ffffff"
     bordercolor="#000000"
     borderopacity="0.25"
     inkscape:showpageshadow="2"
     inkscape:pageopacity="0.0"
     inkscape:pagecheckerboard="0"
     inkscape:deskcolor="#d1d1d1"
     inkscape:document-units="mm"
     inkscape:zoom="5.6568542"
     inkscape:cx="59.662135"
     inkscape:cy="111.28093"
     inkscape:window-width="2560"
     inkscape:window-height="1494"
     inkscape:window-x="-11"
     inkscape:window-y="-11"
     inkscape:window-maximized="1"
     inkscape:current-layer="layer1" /><defs
     id="defs1"><inkscape:path-effect
       effect="fillet_chamfer"
       id="path-effect4"
       is_visible="true"
       lpeversion="1"
       nodesatellites_param="F,0,0,1,0,0,0,1 @ F,0,0,1,0,3.6812054,0,1 @ F,0,0,1,0,0,0,1 @ F,0,0,1,0,0,0,1 @ F,0,0,1,0,1.8987132,0,1 @ F,0,0,1,0,1.9680513,0,1 @ F,0,0,1,0,0,0,1"
       radius="0"
       unit="px"
       method="auto"
       mode="F"
       chamfer_steps="1"
       flexible="false"
       use_knot_distance="true"
       apply_no_radius="true"
       apply_with_radius="true"
       only_selected="false"
       hide_knots="false" /><inkscape:path-effect
       effect="fillet_chamfer"
       id="path-effect2"
       is_visible="true"
       lpeversion="1"
       nodesatellites_param="F,0,0,1,0,0,0,1 @ F,0,0,1,0,4.3995557,0,1 @ F,0,0,1,0,0,0,1 @ F,0,0,1,0,0,0,1 @ F,0,0,1,0,1.1897266,0,1 @ F,0,0,1,0,0,0,1"
       radius="0"
       unit="px"
       method="auto"
       mode="F"
       chamfer_steps="1"
       flexible="false"
       use_knot_distance="true"
       apply_no_radius="true"
       apply_with_radius="true"
       only_selected="false"
       hide_knots="false" /><linearGradient
       id="linearGradient15"
       inkscape:collect="always"><stop
         style="stop-color:#0c1931;stop-opacity:1;"
         offset="0"
         id="stop15" /><stop
         style="stop-color:#106b9d;stop-opacity:1;"
         offset="1"
         id="stop16" /></linearGradient><clipPath
       clipPathUnits="userSpaceOnUse"
       id="clipPath12"><rect
         style="fill:#0078d7;fill-opacity:1;stroke:#4bafbb;stroke-width:0;stroke-linejoin:miter;stroke-opacity:0.348837"
         id="rect12"
         width="34.702351"
         height="34.702087"
         x="6.0977397"
         y="3.6489563"
         sodipodi:type="rect"
         rx="4.1465349"
         ry="4.1465349" /></clipPath><clipPath
       clipPathUnits="userSpaceOnUse"
       id="clipPath13"><rect
         style="fill:#0078d7;fill-opacity:1;stroke:#4bafbb;stroke-width:0;stroke-linejoin:miter;stroke-opacity:0.348837"
         id="rect13"
         width="34.702351"
         height="34.702087"
         x="6.0977397"
         y="3.6489563"
         sodipodi:type="rect"
         rx="4.1465349"
         ry="4.1465349" /></clipPath><clipPath
       clipPathUnits="userSpaceOnUse"
       id="clipPath14"><rect
         style="fill:#0078d7;fill-opacity:1;stroke:#4bafbb;stroke-width:0;stroke-linejoin:miter;stroke-opacity:0.348837"
         id="rect14"
         width="34.702351"
         height="34.702087"
         x="6.0977397"
         y="3.6489563"
         sodipodi:type="rect"
         rx="4.1465349"
         ry="4.1465349" /></clipPath><clipPath
       clipPathUnits="userSpaceOnUse"
       id="clipPath15"><rect
         style="fill:#0078d7;fill-opacity:1;stroke:#4bafbb;stroke-width:0;stroke-linejoin:miter;stroke-opacity:0.348837"
         id="rect15"
         width="34.702351"
         height="34.702087"
         x="6.0977397"
         y="3.6489563"
         sodipodi:type="rect"
         rx="4.1465349"
         ry="4.1465349" /></clipPath><radialGradient
       inkscape:collect="always"
       xlink:href="#linearGradient15"
       id="radialGradient16"
       cx="8.7417574"
       cy="19.326359"
       fx="8.7417574"
       fy="19.326359"
       r="4.7313743"
       gradientUnits="userSpaceOnUse"
       gradientTransform="matrix(1.9116792,-0.97340716,0.69898784,1.3727459,-21.351966,2.9607215)" /></defs><g
     inkscape:label="图层 1"
     inkscape:groupmode="layer"
     id="layer1"
     transform="translate(1.8241145,7.5770911)"><g
       id="g1"
       transform="matrix(1.0464032,0,0,1.0464032,-0.88785709,-1.7095012)"><circle
         style="fill:#169de5;fill-opacity:0.584362;stroke-width:0.545797;stroke-linejoin:round"
         id="path6"
         cx="17.03686"
         cy="5.1705174"
         r="9.6563587" /><circle
         style="fill:#169de5;fill-opacity:0.164609;stroke-width:0.702822;stroke-linejoin:round"
         id="path6-4"
         cx="24.911877"
         cy="15.369203"
         r="12.434484" /><circle
         style="fill:#169de5;fill-opacity:0.141975;stroke-width:0.545797;stroke-linejoin:round"
         id="path6-8"
         cx="15.548431"
         cy="24.249308"
         r="9.6563587" /></g><g
       id="g12"
       clip-path="url(#clipPath12)"
       style="display:inline"
       transform="matrix(1.0464032,0,0,1.0464032,-2.8455589,-10.029735)" /><g
       id="g5"
       transform="matrix(1.0464032,0,0,1.0464032,-0.88785709,-1.7095012)"><path
         id="path3"
         style="fill:#0c1a31;fill-opacity:1;stroke-width:0.367275;stroke-linejoin:round"
         d="m 31.781586,2.5489058 a 7.1093693,7.1093693 0 0 0 -6.810954,5.0792765 l -5.16e-4,-0.00103 -7.840349,8.3116367 a 4.607059,4.607059 0 0 0 -0.01137,-10e-4 4.607059,4.607059 0 0 0 -1.727544,0.347265 l 1.5844,0.914673 a 3.3208241,3.3208241 0 0 1 0.06046,-0.0052 3.3208241,3.3208241 0 0 1 3.320728,3.320728 3.3208241,3.3208241 0 0 1 -0.627869,1.921847 l -0.146244,0.189652 0.02015,-0.0088 a 3.3208241,3.3208241 0 0 1 -2.566769,1.218014 3.3208241,3.3208241 0 0 1 -2.94814,-1.81591 L 12.553812,21.13484 a 4.607059,4.607059 0 0 0 4.56458,4.01681 4.607059,4.607059 0 0 0 4.443139,-3.410128 l 11.319206,-5.064291 -0.0016,-5.16e-4 A 7.1093693,7.1093693 0 0 0 38.89123,9.6585494 7.1093693,7.1093693 0 0 0 31.781586,2.5489058 Z m 0.02532,1.7616496 A 5.07478,5.07478 0 0 1 36.881531,9.385181 5.07478,5.07478 0 0 1 31.806906,14.459807 5.07478,5.07478 0 0 1 26.73228,9.385181 5.07478,5.07478 0 0 1 31.806906,4.3105554 Z" /><circle
         style="fill:#0f6c9e;fill-opacity:1;stroke-width:0.2052;stroke-linejoin:round"
         id="path5"
         cx="31.919641"
         cy="9.3817196"
         r="4.1594563" /><circle
         style="fill:#0f6c9e;fill-opacity:1;stroke-width:0.144081;stroke-linejoin:round"
         id="path5-1"
         cx="16.932255"
         cy="20.430735"
         r="2.920567" /></g><g
       id="g2"
       transform="matrix(1.900523,0,0,1.900523,-7.9771521,-15.344776)"><rect
         style="display:inline;fill:url(#radialGradient16);fill-opacity:1;stroke:#4bafbb;stroke-width:0;stroke-linejoin:miter;stroke-opacity:0.348837"
         id="rect2"
         width="9.4627485"
         height="9.4627485"
         x="3.3865004"
         y="11.091995"
         rx="2"
         ry="2" /><text
         xml:space="preserve"
         style="font-weight:bold;font-size:7.58709px;font-family:'Microsoft JhengHei';-inkscape-font-specification:'Microsoft JhengHei Bold';text-align:start;writing-mode:lr-tb;direction:ltr;text-anchor:start;display:inline;fill:#2089dc;fill-opacity:1;stroke:#4bafbb;stroke-width:0;stroke-linejoin:miter;stroke-opacity:0.348837"
         x="5.4097319"
         y="18.646391"
         id="text2"><tspan
           sodipodi:role="line"
           id="tspan2"
           x="5.4097319"
           y="18.646391"
           style="font-style:normal;font-variant:normal;font-weight:bold;font-stretch:normal;font-family:Arial;-inkscape-font-specification:'Arial Bold';fill:#ffffff;fill-opacity:1;stroke-width:0">S</tspan></text></g></g></svg>
